<svg xmlns="http://www.w3.org/2000/svg" width="1600" height="520">

<defs>

<linearGradient id="bg" x1="0" y1="0" x2="1" y2="1">
<stop offset="0%" stop-color="#0f172a"></stop>
<stop offset="100%" stop-color="#1e3a8a"></stop>
</linearGradient>

<linearGradient id="box" x1="0" y1="0" x2="1" y2="1">
<stop offset="0%" stop-color="#2563eb"></stop>
<stop offset="100%" stop-color="#1d4ed8"></stop>
</linearGradient>

</defs>

<rect width="100%" height="100%" fill="url(#bg)"></rect>

<text x="800" y="70" fill="white" font-size="44" font-family="Segoe UI" font-weight="700" text-anchor="middle">

LPR_RUS_FREE

</text>

<text x="800" y="105" fill="#dbeafe" font-size="22" font-family="Segoe UI" text-anchor="middle">

Automatic Russian License Plate Recognition

</text>

<rect x="60" y="210" width="180" height="70" rx="16" fill="url(#box)"></rect>
<rect x="340" y="210" width="220" height="70" rx="16" fill="url(#box)"></rect>
<rect x="670" y="210" width="220" height="70" rx="16" fill="url(#box)"></rect>
<rect x="1000" y="210" width="220" height="70" rx="16" fill="url(#box)"></rect>
<rect x="1330" y="210" width="200" height="70" rx="16" fill="url(#box)"></rect>

<text x="150" y="252" fill="white" font-size="20" text-anchor="middle">Camera</text>

<text x="450" y="252" fill="white" font-size="20" text-anchor="middle">YOLO Detection</text>

<text x="780" y="252" fill="white" font-size="20" text-anchor="middle">Plate Crop</text>

<text x="1110" y="252" fill="white" font-size="20" text-anchor="middle">OCR</text>

<text x="1430" y="252" fill="white" font-size="20" text-anchor="middle">Result</text>

<line x1="240" y1="245" x2="340" y2="245" stroke="white" stroke-width="4"></line>

<line x1="560" y1="245" x2="670" y2="245" stroke="white" stroke-width="4"></line>

<line x1="890" y1="245" x2="1000" y2="245" stroke="white" stroke-width="4"></line>

<line x1="1220" y1="245" x2="1330" y2="245" stroke="white" stroke-width="4"></line>

<polygon points="338,245 325,238 325,252" fill="white"></polygon>
<polygon points="668,245 655,238 655,252" fill="white"></polygon>
<polygon points="998,245 985,238 985,252" fill="white"></polygon>
<polygon points="1328,245 1315,238 1315,252" fill="white"></polygon>

<text x="800" y="420" fill="#cbd5e1" font-size="22" font-family="Segoe UI" text-anchor="middle">

Vehicle Detection → Plate Localization → OCR → Validation → Recognition

</text>

</svg>